:SAMPLES-PER-SECOND 30
:FULLY-SPECIFIED
:DEGREES
370
root  9.65333 40.6316 -7.36546 -130.709 -87.5935 129.339
RightUpLeg  2.43617 -12.0897 -14.3066
RightLeg  3.03334 -8.24441 2.70806
RightFoot  1.0003 -0.720265 6.71664
RightToes  0.00048216 0.542163 -0.142577
Spine  -0.824654 -0.260619 -1.20458
Spine1  10.0313 -0.464962 0.916159
HEad  -13.7437 -1.21748 1.67234
LeftShoulder1  1.10164 -1.8716 -13.4176
LeftArm  -24.4787 12.4393 -1.13142
LeftForeArm  17.6063 -11.4975 -0.179259
LeftHand  -0.25398 0.0180481 5.50724
RightShoulder  0.415419 -0.982931 9.09358
RightArm  -31.4419 -2.57876 4.63523
RightForeArm  0.402133 9.06972 1.51934
RightHand  -2.60474 10.151 -19.7327
LeftUpLeg  3.05115 6.37559 6.92416
LeftLeg  1.64899 8.58921 -2.73013
LeftFoot  -1.12051 0.444718 -4.84637
LeftToes  1.06241e-005 4.65855e-005 -8.18508e-006
371
root  9.62343 40.6315 -7.37754 -126.03 -87.7661 124.559
RightUpLeg  2.68589 -12.1005 -14.3327
RightLeg  3.02398 -8.43512 2.72852
RightFoot  0.934964 -0.723254 6.77809
RightToes  0.00048216 0.542163 -0.142577
Spine  -0.963222 -0.210239 -1.38056
Spine1  9.82596 -0.45534 1.11822
HEad  -12.2484 -1.60765 1.16209
LeftShoulder1  0.919709 -1.23077 -12.2202
LeftArm  -26.5311 12.0919 -0.815423
LeftForeArm  16.4746 -11.5013 0.39328
LeftHand  -0.25398 0.0180481 5.50724
RightShoulder  0.284585 -1.62701 7.61953
RightArm  -31.9072 -2.6705 4.4291
RightForeArm  0.465845 9.16243 1.41723
RightHand  -2.62477 10.2139 -19.8017
LeftUpLeg  3.14433 6.37764 6.97199
LeftLeg  1.68109 8.31042 -2.69646
LeftFoot  -1.15775 0.446466 -4.87901
LeftToes  1.06241e-005 4.65855e-005 -8.18508e-006
372
root  9.59871 40.6305 -7.38655 -118.938 -87.9228 117.331
RightUpLeg  2.97868 -12.1195 -14.3948
RightLeg  3.01278 -8.6667 2.73577
RightFoot  0.862261 -0.721237 6.79813
RightToes  0.00048216 0.542163 -0.142577
Spine  -1.18885 -0.200455 -1.55403
Spine1  9.85518 -0.478794 1.28821
HEad  -10.9764 -2.03093 0.744803
LeftShoulder1  0.789149 -0.748881 -11.2417
LeftArm  -28.0699 11.6822 -0.782396
LeftForeArm  15.0696 -11.5122 0.760477
LeftHand  -0.25398 0.0180481 5.50724
RightShoulder  0.182933 -2.20862 6.45751
RightArm  -32.3544 -2.58941 4.40689
RightForeArm  0.735672 9.30473 1.34395
RightHand  -2.63676 10.3555 -19.7188
LeftUpLeg  3.26509 6.34406 6.97546
LeftLeg  1.68551 8.01227 -2.66126
LeftFoot  -1.17494 0.447385 -4.89873
LeftToes  1.06241e-005 4.65855e-005 -8.18508e-006
373
root  9.58958 40.6281 -7.3956 -110.188 -88.0486 108.339
RightUpLeg  3.34071 -12.1212 -14.4631
RightLeg  3.05586 -8.92624 2.70376
RightFoot  0.764864 -0.717763 6.8073
RightToes  0.00048216 0.542163 -0.142577
Spine  -1.21011 -0.243241 -1.66638
Spine1  9.91555 -0.537594 1.36661
HEad  -10.0865 -2.52693 0.311408
LeftShoulder1  0.685835 -0.341867 -10.426
LeftArm  -28.9021 11.2343 -0.966955
LeftForeArm  14.0111 -11.5167 0.904932
LeftHand  -0.25398 0.0180481 5.50724
RightShoulder  0.119519 -2.60883 5.59391
RightArm  -32.3827 -2.48817 4.41399
RightForeArm  1.27385 9.56294 1.38985
RightHand  -2.62497 10.4998 -19.4653
LeftUpLeg  3.44572 6.33047 6.99456
LeftLeg  1.74436 7.66371 -2.62441
LeftFoot  -1.2018 0.447061 -4.89905
LeftToes  1.06241e-005 4.65855e-005 -8.18508e-006
374
root  9.59308 40.6241 -7.40536 -102.035 -88.1232 99.9342
RightUpLeg  3.65283 -12.1053 -14.5053
RightLeg  3.14677 -9.1562 2.65068
RightFoot  0.669202 -0.717818 6.85388
RightToes  0.00048216 0.542163 -0.142577
Spine  -1.12388 -0.284006 -1.63929
Spine1  9.91529 -0.550691 1.26057
HEad  -9.4374 -3.10136 -0.115578
LeftShoulder1  0.61393 -0.0619865 -9.7316
LeftArm  -29.3147 10.7302 -1.33239
LeftForeArm  13.7304 -11.4059 0.982522
LeftHand  -0.25398 0.0180481 5.50724
RightShoulder  0.0896134 -2.8082 5.05264
RightArm  -32.0256 -2.43972 4.38409
RightForeArm  1.96787 9.83473 1.5093
RightHand  -2.62196 10.5826 -19.3484
LeftUpLeg  3.61006 6.35665 7.047
LeftLeg  1.84447 7.32243 -2.61148
LeftFoot  -1.2338 0.447435 -4.91018
LeftToes  1.06241e-005 4.65855e-005 -8.18508e-006
375
root  9.60018 40.6213 -7.41358 -95.1712 -88.1589 92.9007
RightUpLeg  3.86739 -12.0952 -14.5279
RightLeg  3.20398 -9.34346 2.62238
RightFoot  0.611835 -0.721353 6.9089
RightToes  0.00048216 0.542163 -0.142577
Spine  -1.15004 -0.299231 -1.52801
Spine1  9.95172 -0.508059 1.04032
HEad  -8.98164 -3.71396 -0.340852
LeftShoulder1  0.57727 0.050175 -9.17002
LeftArm  -29.4966 10.238 -1.81182
LeftForeArm  13.9278 -11.1511 1.05873
LeftHand  -0.25398 0.0180481 5.50724
RightShoulder  0.0821803 -2.85364 4.76907
RightArm  -31.7 -2.43758 4.4165
RightForeArm  2.64865 9.99785 1.57951
RightHand  -2.65767 10.6244 -19.5516
LeftUpLeg  3.70221 6.37892 7.09295
LeftLeg  1.91918 7.04755 -2.6017
LeftFoot  -1.24557 0.448584 -4.93329
LeftToes  1.06241e-005 4.65855e-005 -8.18508e-006
376
root  9.61072 40.6209 -7.41874 -88.953 -88.1652 86.5438
RightUpLeg  4.06845 -12.101 -14.5582
RightLeg  3.19196 -9.50261 2.62634
RightFoot  0.594605 -0.721604 6.91282
RightToes  0.00048216 0.542163 -0.142577
Spine  -1.2102 -0.314293 -1.46878
Spine1  10.0578 -0.482349 0.887956
HEad  -8.8427 -4.26071 -0.339138
LeftShoulder1  0.564479 0.0646295 -8.8348
LeftArm  -29.4189 9.84404 -2.25958
LeftForeArm  14.2535 -10.8383 1.08508
LeftHand  -0.25398 0.0180481 5.50724
RightShoulder  0.0886078 -2.79571 4.625
RightArm  -31.5438 -2.42086 4.56126
RightForeArm  3.27037 10.0148 1.57534
RightHand  -2.68578 10.612 -19.764
LeftUpLeg  3.77843 6.37125 7.10949
LeftLeg  1.94843 6.8346 -2.57638
LeftFoot  -1.23061 0.448136 -4.93133
LeftToes  1.06241e-005 4.65855e-005 -8.18508e-006
